<svg xmlns="http://www.w3.org/2000/svg" class="h-6 w-6" viewBox="0 0 24 24" fill="currentColor">
  <path d="M21.3,7.59c-0.34-0.91-1.2-1.59-2.2-1.59H4.9C3.8,6,2.94,6.68,2.6,7.59L1.6,10.6c-0.12,0.32-0.12,0.67,0,1L2.6,14.5c0.34,0.91,1.2,1.59,2.2,1.59H19.1c1,0,1.86-0.68,2.2-1.59l1-3.1c0.12-0.32,0.12-0.67,0-1L21.3,7.59z M19.1,14.5H4.9c-0.31,0-0.58-0.21-0.67-0.5l-1-3.1c-0.04-0.1-0.04-0.22,0-0.32l1-3.1c0.09-0.29,0.36-0.5,0.67-0.5H19.1c0.31,0,0.58,0.21,0.67,0.5l1,3.1c0.04,0.1,0.04,0.22,0,0.32l-1,3.1C19.68,14.29,19.41,14.5,19.1,14.5z" />
</svg>
